<svg width="800" height="620" viewBox="0 0 800 620" fill="none" xmlns="http://www.w3.org/2000/svg">
<rect width="800" height="620" rx="36" fill="#F3F8FF"/>
<circle cx="662" cy="116" r="68" fill="#DDEEFF"/>
<circle cx="130" cy="506" r="82" fill="#EAF4FF"/>
<rect x="74" y="86" width="652" height="448" rx="26" fill="white" stroke="#D9E7F5" stroke-width="2"/>
<rect x="108" y="126" width="248" height="172" rx="22" fill="#F7FBFF" stroke="#D9E7F5"/>
<rect x="392" y="126" width="298" height="78" rx="22" fill="#1C5D99"/>
<rect x="392" y="220" width="298" height="78" rx="22" fill="#F7FBFF" stroke="#D9E7F5"/>
<rect x="108" y="326" width="582" height="164" rx="22" fill="#F7FBFF" stroke="#D9E7F5"/>
<rect x="130" y="151" width="118" height="14" rx="7" fill="#BCD8F4"/>
<rect x="130" y="178" width="184" height="14" rx="7" fill="#D9EAF9"/>
<rect x="130" y="205" width="158" height="14" rx="7" fill="#D9EAF9"/>
<rect x="130" y="232" width="136" height="14" rx="7" fill="#D9EAF9"/>
<circle cx="248" cy="247" r="49" fill="#E5F1FF"/>
<path d="M248 223C259.598 223 269 232.402 269 244C269 255.598 259.598 265 248 265C236.402 265 227 255.598 227 244C227 232.402 236.402 223 248 223Z" fill="#1C5D99"/>
<path d="M215 285C221.296 272.607 233.91 264.5 248.4 264.5C262.89 264.5 275.504 272.607 281.8 285" stroke="#1C5D99" stroke-width="12" stroke-linecap="round"/>
<rect x="424" y="154" width="130" height="14" rx="7" fill="#A7D0FB"/>
<rect x="424" y="177" width="218" height="12" rx="6" fill="#76B4EF"/>
<rect x="424" y="248" width="110" height="14" rx="7" fill="#BCD8F4"/>
<rect x="424" y="271" width="210" height="12" rx="6" fill="#D9EAF9"/>
<rect x="136" y="356" width="120" height="12" rx="6" fill="#BCD8F4"/>
<rect x="136" y="383" width="278" height="12" rx="6" fill="#D9EAF9"/>
<rect x="136" y="410" width="232" height="12" rx="6" fill="#D9EAF9"/>
<rect x="136" y="437" width="190" height="12" rx="6" fill="#D9EAF9"/>
<g opacity="0.95">
<circle cx="550" cy="408" r="60" fill="#E7F2FF"/>
<path d="M522 431L541 451L583 386" stroke="#1C5D99" stroke-width="15" stroke-linecap="round" stroke-linejoin="round"/>
</g>
</svg>
